<svg width="79px" height="92px" viewBox="0 0 79 92" version="1.1" xmlns="http://www.w3.org/2000/svg" xmlns:xlink="http://www.w3.org/1999/xlink">
    <title>applemusic</title>
    <g id="Page-1" stroke="none" stroke-width="1" fill="none" fill-rule="evenodd">
        <g id="applemusic" transform="translate(0.292812, 0.000000)" fill="#ffffff" fill-rule="nonzero">
            <path d="M64.6258929,48.6080357 C64.5848214,41.0714286 67.99375,35.3830357 74.89375,31.19375 C71.0330357,25.6696429 65.2008929,22.6303571 57.5,22.0348214 C50.2098214,21.4598214 42.2419643,26.2857143 39.3258929,26.2857143 C36.2455357,26.2857143 29.18125,22.2401786 23.6366071,22.2401786 C12.1776786,22.425 0,31.3785714 0,49.59375 C0,54.9741071 0.985714286,60.5324405 2.95714286,66.26875 C5.58571429,73.8053571 15.0732143,92.2875 24.9714286,91.9794643 C30.1464286,91.85625 33.8017857,88.3035714 40.5375,88.3035714 C47.0678571,88.3035714 50.45625,91.9794643 56.2267857,91.9794643 C66.2071429,91.8357143 74.7910714,75.0375 77.2964286,67.4803571 C63.9071429,61.1758929 64.6258929,48.9982143 64.6258929,48.6080357 Z M53.0026786,14.8883929 C58.6089286,8.23482143 58.0955357,2.17678571 57.93125,0 C52.9821429,0.2875 47.2526786,3.36785714 43.9875,7.16696429 C40.39375,11.2330357 38.2785714,16.2642857 38.7303571,21.9321429 C44.0901786,22.3428571 48.9776786,19.5910714 53.0026786,14.8883929 Z" id="Shape"></path>
        </g>
    </g>
</svg>
