
<svg width="93px" height="92px" viewBox="0 0 93 92" version="1.1" xmlns="http://www.w3.org/2000/svg" xmlns:xlink="http://www.w3.org/1999/xlink">
    <title>instagram</title>
    <g id="Page-1" stroke="none" stroke-width="1" fill="none" fill-rule="evenodd">
        <g id="instagram" transform="translate(0.230769, 0.000000)" fill="#ffffff" fill-rule="nonzero">
            <path d="M46.0204444,22.4888889 C33.0177778,22.4888889 22.5297778,32.9768889 22.5297778,45.9795556 C22.5297778,58.9822222 33.0177778,69.4702222 46.0204444,69.4702222 C59.0231111,69.4702222 69.5111111,58.9822222 69.5111111,45.9795556 C69.5111111,32.9768889 59.0231111,22.4888889 46.0204444,22.4888889 Z M46.0204444,61.2515556 C37.6177778,61.2515556 30.7484444,54.4026667 30.7484444,45.9795556 C30.7484444,37.5564444 37.5973333,30.7075556 46.0204444,30.7075556 C54.4435556,30.7075556 61.2924444,37.5564444 61.2924444,45.9795556 C61.2924444,54.4026667 54.4231111,61.2515556 46.0204444,61.2515556 L46.0204444,61.2515556 Z M75.9511111,21.528 C75.9511111,24.5742222 73.4977778,27.0071111 70.472,27.0071111 C67.4257778,27.0071111 64.9928889,24.5537778 64.9928889,21.528 C64.9928889,18.5022222 67.4462222,16.0488889 70.472,16.0488889 C73.4977778,16.0488889 75.9511111,18.5022222 75.9511111,21.528 Z M91.5093333,27.0888889 C91.1617778,19.7493333 89.4853333,13.248 84.1084444,7.89155556 C78.752,2.53511111 72.2506667,0.858666667 64.9111111,0.490666667 C57.3466667,0.0613333333 34.6737778,0.0613333333 27.1093333,0.490666667 C19.7902222,0.838222222 13.2888889,2.51466667 7.912,7.87111111 C2.53511111,13.2275556 0.879111111,19.7288889 0.511111111,27.0684444 C0.0817777778,34.6328889 0.0817777778,57.3057778 0.511111111,64.8702222 C0.858666667,72.2097778 2.53511111,78.7111111 7.912,84.0675556 C13.2888889,89.424 19.7697778,91.1004444 27.1093333,91.4684444 C34.6737778,91.8977778 57.3466667,91.8977778 64.9111111,91.4684444 C72.2506667,91.1208889 78.752,89.4444444 84.1084444,84.0675556 C89.4648889,78.7111111 91.1413333,72.2097778 91.5093333,64.8702222 C91.9386667,57.3057778 91.9386667,34.6533333 91.5093333,27.0888889 Z M81.7368889,72.9866667 C80.1422222,76.9937778 77.0551111,80.0808889 73.0275556,81.696 C66.9964444,84.088 52.6853333,83.536 46.0204444,83.536 C39.3555556,83.536 25.024,84.0675556 19.0133333,81.696 C15.0062222,80.1013333 11.9191111,77.0142222 10.304,72.9866667 C7.912,66.9555556 8.464,52.6444444 8.464,45.9795556 C8.464,39.3146667 7.93244444,24.9831111 10.304,18.9724444 C11.8986667,14.9653333 14.9857778,11.8782222 19.0133333,10.2631111 C25.0444444,7.87111111 39.3555556,8.42311111 46.0204444,8.42311111 C52.6853333,8.42311111 67.0168889,7.89155556 73.0275556,10.2631111 C77.0346667,11.8577778 80.1217778,14.9448889 81.7368889,18.9724444 C84.1288889,25.0035556 83.5768889,39.3146667 83.5768889,45.9795556 C83.5768889,52.6444444 84.1288889,66.976 81.7368889,72.9866667 Z" id="Shape"></path>
        </g>
    </g>
</svg>
