
<svg width="93px" height="92px" viewBox="0 0 93 92" version="1.1" xmlns="http://www.w3.org/2000/svg" xmlns:xlink="http://www.w3.org/1999/xlink">
    <title>spotify</title>
    <g id="Page-1" stroke="none" stroke-width="1" fill="none" fill-rule="evenodd">
        <g id="spotify" transform="translate(0.292812, 0.000000)" fill="#ffffff" fill-rule="nonzero">
            <path d="M46,0 C20.6072581,0 0,20.6072581 0,46 C0,71.3927419 20.6072581,92 46,92 C71.3927419,92 92,71.3927419 92,46 C92,20.6072581 71.3927419,0 46,0 Z M64.6782258,67.6830645 C63.8991935,67.6830645 63.4169355,67.4419355 62.6935484,67.0153226 C51.1193548,60.041129 37.6532258,59.7443548 24.3540323,62.4709677 C23.6306452,62.6564516 22.6846774,62.9532258 22.1467742,62.9532258 C20.3475806,62.9532258 19.216129,61.525 19.216129,60.0225806 C19.216129,58.1120968 20.3475806,57.2032258 21.7387097,56.9064516 C36.9298387,53.5491935 52.4548387,53.8459677 65.6983871,61.766129 C66.8298387,62.4895161 67.4975806,63.1387097 67.4975806,64.8266129 C67.4975806,66.5145161 66.1806452,67.6830645 64.6782258,67.6830645 L64.6782258,67.6830645 Z M69.6677419,55.5153226 C68.7032258,55.5153226 68.0540323,55.0887097 67.3862903,54.7362903 C55.7935484,47.8733871 38.5064516,45.1096774 23.1298387,49.2830645 C22.2395161,49.5241935 21.7572581,49.7653226 20.9225806,49.7653226 C18.9379032,49.7653226 17.3241935,48.1516129 17.3241935,46.1669355 C17.3241935,44.1822581 18.2887097,42.8653226 20.1991935,42.3274194 C25.3556452,40.8806452 30.6233871,39.8048387 38.3395161,39.8048387 C50.3774194,39.8048387 62.0072581,42.791129 71.1701613,48.2443548 C72.6725806,49.1346774 73.266129,50.2846774 73.266129,51.8983871 C73.2475806,53.9016129 71.6895161,55.5153226 69.6677419,55.5153226 L69.6677419,55.5153226 Z M75.4177419,41.3814516 C74.4532258,41.3814516 73.8596774,41.1403226 73.025,40.6580645 C59.8185484,32.775 36.2064516,30.8830645 20.9225806,35.1491935 C20.2548387,35.3346774 19.4201613,35.6314516 18.5298387,35.6314516 C16.0814516,35.6314516 14.2080645,33.7209677 14.2080645,31.2540323 C14.2080645,28.7314516 15.766129,27.3032258 17.4354839,26.8209677 C23.9645161,24.9104839 31.2725806,24.0016129 39.2298387,24.0016129 C52.7701613,24.0016129 66.9596774,26.8209677 77.3282258,32.8677419 C78.775,33.7024194 79.7209677,34.8524194 79.7209677,37.0596774 C79.7209677,39.5822581 77.6806452,41.3814516 75.4177419,41.3814516 L75.4177419,41.3814516 Z" id="Shape"></path>
        </g>
    </g>
</svg>
