
<svg width="93px" height="65px" viewBox="0 0 93 65" version="1.1" xmlns="http://www.w3.org/2000/svg" xmlns:xlink="http://www.w3.org/1999/xlink">
    <title>youtube</title>
    <g id="Page-1" stroke="none" stroke-width="1" fill="none" fill-rule="evenodd">
        <g id="youtube" transform="translate(0.306205, 0.000000)" fill="#ffffff" fill-rule="nonzero">
            <path d="M89.9274818,10.086927 C88.8730073,6.11648905 85.7661606,2.98949635 81.8214088,1.92830657 C74.6712628,0 46,0 46,0 C46,0 17.3289051,0 10.1785912,1.92830657 C6.23383942,2.98966423 3.1269927,6.11648905 2.07251825,10.086927 C0.156635036,17.2835766 0.156635036,32.2987153 0.156635036,32.2987153 C0.156635036,32.2987153 0.156635036,47.313854 2.07251825,54.5105036 C3.1269927,58.4809416 6.23383942,61.4776569 10.1785912,62.5388467 C17.3289051,64.4671533 46,64.4671533 46,64.4671533 C46,64.4671533 74.6710949,64.4671533 81.8214088,62.5388467 C85.7661606,61.4776569 88.8730073,58.4809416 89.9274818,54.5105036 C91.843365,47.313854 91.843365,32.2987153 91.843365,32.2987153 C91.843365,32.2987153 91.843365,17.2835766 89.9274818,10.086927 Z M36.6228832,45.9313358 L36.6228832,18.6660949 L60.586365,32.2990511 L36.6228832,45.9313358 Z" id="Shape"></path>
        </g>
    </g>
</svg>
